<?xml version="1.0" ?><svg height="58px" version="1.1" viewBox="0 0 58 58" width="58px" xmlns="http://www.w3.org/2000/svg" xmlns:xlink="http://www.w3.org/1999/xlink"><title/><desc/><defs/><g fill="none" fill-rule="evenodd" id="Page-1" stroke="none" stroke-width="1"><g fill-rule="nonzero" id="016---Volume"><ellipse cx="29" cy="29" fill="#35495E" id="Oval" rx="29" ry="28.875"/><path d="M29,54.875 C14.7258624,54.8062083 3.20367241,43.1910968 3.24953355,28.9168671 C3.29539468,14.6426374 14.8919815,3.1018034 29.1662665,3.12473387 C43.4405514,3.14766433 54.9999997,14.7256966 55,29 C54.9494092,43.3181773 43.3182549,54.8934126 29,54.875 Z M29,5.125 C15.8304243,5.19376862 5.20363798,15.9134441 5.24948467,29.0831195 C5.29533136,42.2527949 15.9964946,52.898223 29.1662298,52.8752983 C42.3359651,52.8523737 53.0000025,42.1697552 53,29 C52.950323,15.7860145 42.2140648,5.10567421 29,5.125 Z" fill="#FF5364" id="Shape"/><path d="M19,25 L23,25 L23,33 L19,33 C17.8954305,33 17,32.1045695 17,31 L17,27 C17,25.8954305 17.8954305,25 19,25 Z" fill="#DF4D60" id="Shape"/><path d="M32.78058,17.47644 L23,25 L23,33 L32.78058,40.5235 C33.3845142,40.9880638 34.1999488,41.0691137 34.8835137,40.7325205 C35.5670787,40.3959272 36.0000079,39.7001723 36,38.93823 L36,19.06171 C36.0000079,18.2997677 35.5670787,17.6040128 34.8835137,17.2674195 C34.1999488,16.9308263 33.3845142,17.0118762 32.78058,17.47644 Z" fill="#FF5364" id="Shape"/></g></g></svg>