<svg width="70" height="110" viewBox="0 0 70 110" fill="none" xmlns="http://www.w3.org/2000/svg">
<path d="M0 0V110H70V0H0ZM49.4118 8.46154H61.7647V38.0769H49.4118V8.46154ZM8.23529 8.92438H20.5882V50.7692H8.23529V8.92438ZM28.8235 8.92438H41.1765V50.7692H28.8235V8.92438ZM55.5882 46.5385C58.9993 46.5385 61.7647 49.3798 61.7647 52.8846C61.7647 56.3894 58.9993 59.2308 55.5882 59.2308C52.1772 59.2308 49.4118 56.3894 49.4118 52.8846C49.4118 49.3798 52.1772 46.5385 55.5882 46.5385ZM28.8235 59.2308H40.9516L41.1765 101.538H29.0484L28.8235 59.2308ZM8.23529 60.6354H20.5882V101.538H8.23529V60.6354ZM49.4118 67.6923H61.7647V101.538H49.4118V67.6923Z" fill="#666666"/>
</svg>
